<svg width="32" height="32" viewBox="0 0 32 32" fill="none" xmlns="http://www.w3.org/2000/svg">
<path d="M3.33325 16C3.33325 10.0289 3.33325 7.04336 5.18824 5.18836C7.04324 3.33337 10.0288 3.33337 15.9999 3.33337C21.971 3.33337 24.9566 3.33337 26.8117 5.18836C28.6666 7.04336 28.6666 10.0289 28.6666 16C28.6666 21.9711 28.6666 24.9567 26.8117 26.8118C24.9566 28.6667 21.971 28.6667 15.9999 28.6667C10.0288 28.6667 7.04324 28.6667 5.18824 26.8118C3.33325 24.9567 3.33325 21.9711 3.33325 16Z" stroke="#F1F5F9" stroke-width="2"/>
<path d="M7.99992 18L9.99992 12L12.4999 18M7.99992 18L7.33325 20M7.99992 18H12.4999M12.4999 18L13.3333 20" stroke="#F1F5F9" stroke-width="2" stroke-linecap="round" stroke-linejoin="round"/>
<path d="M16.6667 16V12.9333C16.6667 12.6852 16.6667 12.5611 16.6994 12.4607C16.7653 12.2577 16.9245 12.0986 17.1274 12.0326C17.2278 12 17.3519 12 17.6001 12H19.3334C20.4379 12 21.3334 12.8954 21.3334 14C21.3334 15.1045 20.4379 16 19.3334 16H16.6667ZM16.6667 16V20" stroke="#F1F5F9" stroke-width="2" stroke-linecap="round" stroke-linejoin="round"/>
<path d="M24.6667 12V20" stroke="#F1F5F9" stroke-width="2" stroke-linecap="round" stroke-linejoin="round"/>
</svg>
