<svg width="32" height="32" viewBox="0 0 32 32" fill="none" xmlns="http://www.w3.org/2000/svg">
<path d="M3.33325 16C3.33325 10.0289 3.33325 7.04336 5.18824 5.18836C7.04324 3.33337 10.0288 3.33337 15.9999 3.33337C21.971 3.33337 24.9566 3.33337 26.8117 5.18836C28.6666 7.04336 28.6666 10.0289 28.6666 16C28.6666 21.9711 28.6666 24.9567 26.8117 26.8118C24.9566 28.6667 21.971 28.6667 15.9999 28.6667C10.0288 28.6667 7.04324 28.6667 5.18824 26.8118C3.33325 24.9567 3.33325 21.9711 3.33325 16Z" stroke="#F1F5F9" stroke-width="2"/>
<path d="M3.33325 16H28.6666" stroke="#F1F5F9" stroke-width="2" stroke-linecap="round" stroke-linejoin="round"/>
<path d="M17.3333 9.33337H22.6666" stroke="#F1F5F9" stroke-width="2" stroke-linecap="round" stroke-linejoin="round"/>
<path d="M10.9999 11C11.9204 11 12.6666 10.2538 12.6666 9.33329C12.6666 8.41282 11.9204 7.66663 10.9999 7.66663C10.0794 7.66663 9.33325 8.41282 9.33325 9.33329C9.33325 10.2538 10.0794 11 10.9999 11Z" stroke="#F1F5F9" stroke-width="2" stroke-linecap="round" stroke-linejoin="round"/>
<path d="M10.9999 24.3333C11.9204 24.3333 12.6666 23.5871 12.6666 22.6667C12.6666 21.7462 11.9204 21 10.9999 21C10.0794 21 9.33325 21.7462 9.33325 22.6667C9.33325 23.5871 10.0794 24.3333 10.9999 24.3333Z" stroke="#F1F5F9" stroke-width="2" stroke-linecap="round" stroke-linejoin="round"/>
<path d="M17.3333 22.6666H22.6666" stroke="#F1F5F9" stroke-width="2" stroke-linecap="round" stroke-linejoin="round"/>
</svg>
