<svg width="32" height="32" viewBox="0 0 32 32" fill="none" xmlns="http://www.w3.org/2000/svg">
<path d="M17.3333 22.6667L18.6969 23.4592C19.383 20.9703 22.015 19.4932 24.5757 20.1601C25.8865 20.5015 26.9245 21.3385 27.5334 22.408M29.3333 26.6667L27.9698 25.8741C27.2837 28.3631 24.6517 29.8401 22.091 29.1732C20.8107 28.8397 19.7906 28.0335 19.1765 26.9995" stroke="#0F172A" stroke-width="2" stroke-linecap="round" stroke-linejoin="round"/>
<path d="M28.0001 17.3333V15.3333C28.0001 9.36217 28.0001 6.37661 26.1451 4.52161C24.2901 2.66663 21.3045 2.66663 15.3334 2.66663C9.36229 2.66663 6.37673 2.66663 4.52173 4.52161C2.66675 6.37661 2.66675 9.36217 2.66675 15.3333C2.66675 21.3044 2.66675 24.29 4.52173 26.145C6.15692 27.7801 8.6706 27.974 13.3334 27.9969H14.6667" stroke="#0F172A" stroke-width="2" stroke-linecap="round"/>
<path d="M2.66675 15.3334H28.0001" stroke="#0F172A" stroke-width="2" stroke-linecap="round" stroke-linejoin="round"/>
<path d="M16.6667 8.66663H22.0001" stroke="#0F172A" stroke-width="2" stroke-linecap="round" stroke-linejoin="round"/>
<path d="M10.3334 10.3333C11.2539 10.3333 12.0001 9.58714 12.0001 8.66667C12.0001 7.74619 11.2539 7 10.3334 7C9.41294 7 8.66675 7.74619 8.66675 8.66667C8.66675 9.58714 9.41294 10.3333 10.3334 10.3333Z" stroke="#0F172A" stroke-width="2" stroke-linecap="round" stroke-linejoin="round"/>
<path d="M10.3334 23.6667C11.2539 23.6667 12.0001 22.9205 12.0001 22C12.0001 21.0796 11.2539 20.3334 10.3334 20.3334C9.41294 20.3334 8.66675 21.0796 8.66675 22C8.66675 22.9205 9.41294 23.6667 10.3334 23.6667Z" stroke="#0F172A" stroke-width="2" stroke-linecap="round" stroke-linejoin="round"/>
</svg>
