<svg width="32" height="32" viewBox="0 0 32 32" fill="none" xmlns="http://www.w3.org/2000/svg">
<path d="M29.3334 16C29.3334 8.63616 23.3638 2.66663 16.0001 2.66663C8.63628 2.66663 2.66675 8.63616 2.66675 16C2.66675 23.3637 8.63628 29.3333 16.0001 29.3333C17.1223 29.3333 18.6667 29.4884 18.6667 28C18.6667 27.188 18.2443 26.5616 17.8249 25.9392C17.211 25.0286 16.6031 24.127 17.3334 22.6666C18.2223 20.8889 19.7038 20.8889 21.9754 20.8889C23.1113 20.8889 24.4446 20.8889 26.0001 20.6666C28.8014 20.2665 29.3334 18.5445 29.3334 16Z" stroke="#F1F5F9" stroke-width="2"/>
<path d="M9.33325 20.0027L9.34483 19.9995" stroke="#F1F5F9" stroke-width="2.66667" stroke-linecap="round" stroke-linejoin="round"/>
<path d="M12.6667 13.3334C13.7713 13.3334 14.6667 12.4379 14.6667 11.3334C14.6667 10.2288 13.7713 9.33337 12.6667 9.33337C11.5622 9.33337 10.6667 10.2288 10.6667 11.3334C10.6667 12.4379 11.5622 13.3334 12.6667 13.3334Z" stroke="#F1F5F9" stroke-width="2"/>
<path d="M22 14.6666C23.1046 14.6666 24 13.7712 24 12.6666C24 11.5621 23.1046 10.6666 22 10.6666C20.8954 10.6666 20 11.5621 20 12.6666C20 13.7712 20.8954 14.6666 22 14.6666Z" stroke="#F1F5F9" stroke-width="2"/>
</svg>
