<svg width="32" height="32" viewBox="0 0 32 32" fill="none" xmlns="http://www.w3.org/2000/svg">
<path d="M3.33325 16C3.33325 10.0289 3.33325 7.04336 5.18824 5.18836C7.04324 3.33337 10.0288 3.33337 15.9999 3.33337C21.971 3.33337 24.9566 3.33337 26.8117 5.18836C28.6666 7.04336 28.6666 10.0289 28.6666 16C28.6666 21.9711 28.6666 24.9567 26.8117 26.8118C24.9566 28.6667 21.971 28.6667 15.9999 28.6667C10.0288 28.6667 7.04324 28.6667 5.18824 26.8118C3.33325 24.9567 3.33325 21.9711 3.33325 16Z" stroke="#0F172A" stroke-width="2"/>
<path d="M3.33325 12H28.6666" stroke="#0F172A" stroke-width="2" stroke-linejoin="round"/>
<path d="M9.33301 8H9.34498" stroke="#0F172A" stroke-width="2.66667" stroke-linecap="round" stroke-linejoin="round"/>
<path d="M14.6665 8H14.6785" stroke="#0F172A" stroke-width="2.66667" stroke-linecap="round" stroke-linejoin="round"/>
</svg>
