<svg width="32" height="32" viewBox="0 0 32 32" fill="none" xmlns="http://www.w3.org/2000/svg">
<path d="M26.6667 22.915C25.1241 24 22.9477 24 18.595 24H13.2856C8.93288 24 6.75653 24 5.21381 22.915C4.64305 22.5135 4.14661 22.0148 3.74697 21.4415C2.66675 19.8918 2.66675 17.7056 2.66675 13.3334C2.66675 8.96105 2.66675 6.7749 3.74697 5.22523C4.14661 4.6519 4.64305 4.15322 5.21381 3.75178C6.75653 2.66669 8.93288 2.66669 13.2856 2.66669" stroke="#0F172A" stroke-width="2" stroke-linecap="round"/>
<path d="M16 24V29.3333" stroke="#0F172A" stroke-width="2"/>
<path d="M10.6667 29.3333H21.3334" stroke="#0F172A" stroke-width="2" stroke-linecap="round"/>
<path d="M23.9999 2.66669C26.5141 2.66669 27.7711 2.66669 28.5522 3.44774C29.3333 4.22878 29.3333 5.48586 29.3333 8.00002V13.3334C29.3333 15.8475 29.3333 17.1046 28.5522 17.8856C27.7711 18.6667 26.5141 18.6667 23.9999 18.6667H22.6666C20.1525 18.6667 18.8954 18.6667 18.1143 17.8856C17.3333 17.1046 17.3333 15.8475 17.3333 13.3334V8.00002C17.3333 5.48586 17.3333 4.22878 18.1143 3.44774C18.8954 2.66669 20.1525 2.66669 22.6666 2.66669H23.9999Z" stroke="#0F172A" stroke-width="2" stroke-linecap="round"/>
<path d="M23.3333 15.3333H23.3453" stroke="#0F172A" stroke-width="2.66667" stroke-linecap="round" stroke-linejoin="round"/>
</svg>
